<mxfile host="app.diagrams.net" modified="2024-03-20T08:17:05.483Z" agent="Mozilla/5.0 (Macintosh; Intel Mac OS X 10_15_7) AppleWebKit/537.36 (KHTML, like Gecko) Chrome/120.0.0.0 Safari/537.36" version="22.1.20" etag="7VO-cH1__WRHybAlFyr4" type="github">
  <diagram name="第 1 页" id="2XR303NfXYFgoQkDeR8G">
    <mxGraphModel>
      <root>
        <mxCell id="0" />
        <mxCell id="1" parent="0" />
      </root>
    </mxGraphModel>
  </diagram>
</mxfile>
